<svg width="200" height="200" xmlns="http://www.w3.org/2000/svg">
	<!-- Background rectangle -->
	<rect width="190" height="190" x="5" y="5" rx="20" ry="20" fill="#2c5682" stroke="white" stroke-width="5" />
	<!-- Half of python logo -->
	<path d="M55.023-0.077c-25.971,0-26.25,10.081-26.25,12.156c0,3.148,0,12.594,0,12.594h26.75v3.781 c0,0-27.852,0-37.375,0c-7.949,0-17.938,4.833-17.938,26.25c0,19.673,7.792,27.281,15.656,27.281c2.335,0,9.344,0,9.344,0 s0-9.765,0-13.125c0-5.491,2.721-15.656,15.406-15.656c15.91,0,19.971,0,26.531,0c3.902,0,14.906-1.696,14.906-14.406 c0-13.452,0-17.89,0-24.219C82.054,11.426,81.515-0.077,55.023-0.077z M40.273,8.392c2.662,0,4.813,2.15,4.813,4.813 c0,2.661-2.151,4.813-4.813,4.813s-4.813-2.151-4.813-4.813C35.46,10.542,37.611,8.392,40.273,8.392 Z" transform="translate(15, 15) scale(2)" fill="#ffcc43" stroke="#b4902f" stroke-width="1" />
	<!-- Text Shadow -->
	<filter id="shadow">
		<feDropShadow dx="2" dy="2" stdDeviation="2" />
	</filter>
	<!-- Text RPG -->
	<g id="svgGroup1" stroke-linecap="round" fill-rule="evenodd" font-size="9pt" stroke="#0f3257" stroke-width="0.25mm" fill="#ffffff" style="stroke:#0f3257;stroke-width:0.25mm;fill:#ffffff"><path d="M 155.552 4.683 L 156.68 1.06 L 168.506 1.06 L 168.506 21.123 L 157.944 21.123 Q 156.885 16.817 153.877 14.595 Q 150.869 12.373 147.588 12.373 Q 142.119 12.373 138.94 16.372 Q 135.762 20.371 135.762 27.378 Q 135.762 34.453 138.906 38.469 Q 142.051 42.486 147.793 42.486 Q 149.16 42.486 150.732 42.212 Q 151.895 42.007 152.92 41.648 Q 153.945 41.289 154.287 41.221 L 154.287 36.402 L 147.725 36.402 L 147.725 26.25 L 169.634 26.25 L 169.634 50.689 Q 164.37 53.491 158.354 54.961 Q 152.339 56.431 146.392 56.431 Q 138.018 56.431 131.182 53.32 Q 124.277 50.244 120.142 43.75 Q 116.006 37.256 116.006 27.378 Q 116.006 19.517 119.253 13.296 Q 122.5 7.075 128.704 3.538 Q 134.907 0 143.315 0 Q 146.87 0 150.237 1.196 Q 153.604 2.393 155.552 4.683 Z M 28.403 43.408 L 28.403 55.44 L 0 55.44 L 0 43.408 L 5.469 43.408 L 5.469 13.091 L 0 13.091 L 0 1.06 L 34.932 1.06 Q 43.408 1.06 47.39 4.478 Q 51.372 7.896 51.372 15.825 Q 51.372 21.123 48.398 23.994 Q 45.425 26.865 39.956 27.857 Q 44.878 28.643 47.048 31.548 Q 49.219 34.453 49.219 38.794 L 49.219 43.203 L 56.841 43.203 L 56.841 55.44 L 45.835 55.44 Q 42.314 55.44 40.161 55.183 Q 38.008 54.927 36.76 53.953 Q 35.513 52.979 34.692 50.894 Q 33.462 47.749 33.462 40.401 Q 33.462 36.196 32.095 34.163 Q 30.728 32.129 27.104 32.129 L 22.969 32.129 L 22.969 43.408 L 28.403 43.408 Z M 88.56 43.203 L 88.56 55.44 L 59.165 55.44 L 59.165 43.203 L 64.497 43.203 L 64.497 13.091 L 59.302 13.091 L 59.302 0.991 L 88.423 0.991 Q 95.122 0.991 100.3 2.444 Q 105.479 3.897 108.435 7.315 Q 111.392 10.733 111.392 16.714 Q 111.392 27.173 105.718 31.753 Q 100.044 36.333 88.696 36.333 Q 85.791 36.333 83.604 35.991 L 83.604 43.203 L 88.56 43.203 Z M 28.335 13.091 L 22.969 13.091 L 22.969 24.37 L 27.651 24.37 Q 31.377 24.37 33.188 23.037 Q 35 21.704 35 18.355 Q 35 15.894 33.137 14.492 Q 31.274 13.091 28.335 13.091 Z M 86.543 13.091 L 83.672 13.091 L 83.672 25.191 L 85.073 25.191 Q 92.832 25.191 92.832 18.355 Q 92.832 15.825 91.123 14.458 Q 89.414 13.091 86.543 13.091 Z" vector-effect="non-scaling-stroke" transform="translate(15, 50)" filter="url(#shadow)" /></g>
	<!-- Text MTL -->
	<g id="svgGroup2" stroke-linecap="round" fill-rule="evenodd" font-size="9pt" stroke="#0f3257" stroke-width="0.25mm" fill="#ffffff" style="stroke:#0f3257;stroke-width:0.25mm;fill:#ffffff"><path d="M 15 36.299 L 19.688 36.299 L 19.688 46.611 L 0 46.611 L 0 36.299 L 5.654 36.299 L 5.654 10.313 L 0 10.313 L 0 0 L 25.137 0 L 34.189 22.441 L 43.154 0 L 66.592 0 L 66.592 10.313 L 60.967 10.313 L 60.967 36.299 L 66.592 36.299 L 66.592 46.611 L 42.188 46.611 L 42.188 36.299 L 45.967 36.299 L 45.967 18.896 L 35.654 46.611 L 27.188 46.611 L 15 18.223 L 15 36.299 Z M 99.58 36.064 L 104.385 36.064 L 104.385 46.611 L 78.281 46.611 L 78.281 36.064 L 83.086 36.064 L 83.086 10.313 L 78.955 10.313 L 77.695 18.34 L 69.463 18.34 L 69.463 0 L 113.32 0 L 113.32 18.34 L 105.117 18.34 L 103.857 10.313 L 99.58 10.313 L 99.58 36.064 Z M 149.326 25.84 L 156.768 25.84 L 156.768 46.611 L 119.326 46.611 L 119.326 36.123 L 124.014 36.123 L 124.014 10.313 L 119.326 10.313 L 119.326 0 L 143.672 0 L 143.672 10.313 L 139.014 10.313 L 139.014 36.123 L 146.514 36.123 L 149.326 25.84 Z" vector-effect="non-scaling-stroke" transform="translate(20, 120)" filter="url(#shadow)" /></g>
</svg>